#N canvas 618 198 450 300 10;
#X obj 62 58 inlet;
#X obj 178 79 inlet;
#X msg 62 157 \; pd open \$1 \$2;
#X obj 178 139 makefilename pd-%s;
#X msg 178 159 \; \$1 menuclose \;;
#X obj 62 116 symbol;
#X obj 108 116 symbol;
#X obj 62 136 pack s s;
#X obj 178 117 symbol;
#X obj 62 96 unpack s s;
#X connect 0 0 9 0;
#X connect 1 0 8 0;
#X connect 3 0 4 0;
#X connect 5 0 7 0;
#X connect 6 0 7 1;
#X connect 7 0 2 0;
#X connect 8 0 3 0;
#X connect 9 0 5 0;
#X connect 9 1 6 0;
