#N canvas -983 301 580 460 10;
#X obj 255 123 list prepend set;
#X obj 255 144 list trim;
#X msg 388 103 \$1-r;
#X obj 388 123 list prepend set;
#X obj 388 144 list trim;
#X msg 255 103 \$1-l;
#X obj 255 165 r~ 0-l;
#X obj 388 165 r~ 0-r;
#X obj 261 218 *~;
#X obj 383 222 *~;
#X obj 255 34 inlet;
#X obj 342 185 inlet~;
#X obj 273 257 outlet~;
#X obj 364 257 outlet~;
#X obj 139 206 s;
#X msg 154 160 \$1-control;
#X obj 154 182 symbol;
#X obj 91 68 inlet;
#X obj 255 70 route \$1;
#X obj 91 104 route \$1;
#X connect 0 0 1 0;
#X connect 1 0 6 0;
#X connect 2 0 3 0;
#X connect 3 0 4 0;
#X connect 4 0 7 0;
#X connect 5 0 0 0;
#X connect 6 0 8 0;
#X connect 7 0 9 0;
#X connect 8 0 12 0;
#X connect 9 0 13 0;
#X connect 10 0 18 0;
#X connect 11 0 9 1;
#X connect 11 0 8 1;
#X connect 15 0 16 0;
#X connect 16 0 14 1;
#X connect 17 0 19 0;
#X connect 18 0 2 0;
#X connect 18 0 5 0;
#X connect 18 0 15 0;
#X connect 19 0 14 0;
