#N canvas -1214 269 526 501 10;
#X obj 220 120 spigot 0;
#X obj 135 146 list prepend send;
#X obj 135 172 list trim;
#X obj 376 334 t f f;
#X obj 297 366 outlet;
#X obj 220 97 inlet;
#X obj 376 366 outlet;
#X obj 210 184 r startup;
#X msg 210 235 connect localhost \$1;
#X obj 210 209 route port;
#X obj 210 277 netclient;
#X msg 210 427 \; pd dsp \$1;
#X obj 237 385 spigot;
#X obj 210 343 route dsp debug;
#X obj 253 365 tgl 15 0 empty empty empty 17 7 0 10 -262144 -1 -1 0
1;
#X obj 210 312 t a a;
#X obj 135 50 r \$0-debug;
#X obj 237 406 s \$0-debug;
#X obj 135 73 list prepend debug main;
#X connect 0 0 1 0;
#X connect 1 0 2 0;
#X connect 2 0 10 0;
#X connect 3 0 6 0;
#X connect 3 1 0 1;
#X connect 5 0 0 0;
#X connect 7 0 9 0;
#X connect 8 0 10 0;
#X connect 9 0 8 0;
#X connect 10 0 15 0;
#X connect 10 1 3 0;
#X connect 12 0 17 0;
#X connect 13 0 11 0;
#X connect 13 1 14 0;
#X connect 13 2 4 0;
#X connect 14 0 12 1;
#X connect 15 0 13 0;
#X connect 15 1 12 0;
#X connect 16 0 18 0;
#X connect 18 0 1 0;
