#N canvas 0 0 524 388 10;
#X obj 152 256 list trim;
#X msg 53 188 passwd;
#X obj 53 146 symbol;
#X obj 155 112 sel 1 0;
#X msg 112 187 connect;
#X msg 216 176 disconnect;
#X obj 53 167 t b s;
#X obj 53 209 pack s s;
#X obj 112 165 symbol;
#X msg 236 140 vorbis \$1 \$2 \$3 \$4 \$5;
#X obj 112 142 unpack s s f;
#X obj 158 165 symbol;
#X obj 112 209 pack s s s f;
#X obj 341 260 inlet~;
#X obj 421 260 inlet~;
#X msg 298 184 server \$1;
#X obj 53 76 route password hostinfo connect settings server meta;
#X obj 341 313 oggcast~ 2 512;
#X obj 466 26 inlet;
#X connect 0 0 17 0;
#X connect 1 0 7 0;
#X connect 2 0 6 0;
#X connect 3 0 4 0;
#X connect 3 1 5 0;
#X connect 4 0 12 0;
#X connect 5 0 17 0;
#X connect 6 0 1 0;
#X connect 6 1 7 1;
#X connect 7 0 0 0;
#X connect 8 0 12 1;
#X connect 9 0 17 0;
#X connect 10 0 8 0;
#X connect 10 1 11 0;
#X connect 10 2 12 3;
#X connect 11 0 12 2;
#X connect 12 0 0 0;
#X connect 13 0 17 0;
#X connect 14 0 17 1;
#X connect 15 0 17 0;
#X connect 16 0 2 0;
#X connect 16 1 10 0;
#X connect 16 2 3 0;
#X connect 16 3 9 0;
#X connect 16 4 15 0;
#X connect 16 5 17 0;
#X connect 18 0 16 0;
