#N canvas 408 154 589 454 10;
#X obj 81 207 osc~;
#X obj 81 101 loadbang;
#X obj 81 129 random 300;
#X obj 81 158 + 300;
#X floatatom 81 181 5 0 0 0 - - -;
#X obj 69 280 patchComs;
#X obj 69 305 switch~;
#X obj 163 240 snapshot~;
#X obj 164 201 metro 1000;
#X obj 155 167 tgl 15 0 empty empty empty 17 7 0 10 -262144 -1 -1 0
1;
#X msg 164 276 inpatch \$1;
#X obj 173 311 print;
#X connect 0 0 5 0;
#X connect 0 0 5 1;
#X connect 0 0 7 0;
#X connect 1 0 2 0;
#X connect 1 0 9 0;
#X connect 2 0 3 0;
#X connect 3 0 4 0;
#X connect 4 0 0 0;
#X connect 5 0 6 0;
#X connect 7 0 10 0;
#X connect 8 0 7 0;
#X connect 9 0 8 0;
#X connect 10 0 11 0;
