#N canvas 428 217 760 554 10;
#X obj 444 85 python-interface;
#X obj 140 311 adc~ 1 2 3 4;
#X obj 152 392 dac~;
#X obj 80 138 line~;
#X obj 249 143 line~;
#X obj 470 282 * 1000;
#X obj 449 307 pack;
#X obj 433 177 unpack;
#X obj 408 307 pack;
#X obj 406 222 sel 1 2;
#X obj 367 260 1;
#X obj 391 260 0;
#X obj 443 259 1;
#X obj 419 259 0;
#X obj 65 91 r chan1Vol;
#X obj 259 98 r chan2Vol;
#X obj 371 350 s chan1Vol;
#X obj 465 349 s chan2Vol;
#X obj 128 224 *~;
#X obj 164 223 *~;
#X obj 210 223 *~;
#X obj 246 222 *~;
#X obj 444 62 r toPython;
#X obj 521 178 s toPython;
#X obj 551 111 tgl 15 0 empty empty empty 17 7 0 10 -262144 -1 -1 1
1;
#X obj 444 118 route fade;
#X msg 593 165 \; pd dsp 1;
#X obj 593 141 sel 1;
#X msg 521 152 status \$1;
#X connect 0 0 25 0;
#X connect 0 1 24 0;
#X connect 1 0 2 0;
#X connect 1 1 2 1;
#X connect 1 2 2 0;
#X connect 1 3 2 1;
#X connect 3 0 19 1;
#X connect 3 0 18 1;
#X connect 4 0 20 1;
#X connect 4 0 21 1;
#X connect 5 0 6 1;
#X connect 5 0 8 1;
#X connect 6 0 17 0;
#X connect 7 0 9 0;
#X connect 7 1 5 0;
#X connect 8 0 16 0;
#X connect 9 0 11 0;
#X connect 9 0 10 0;
#X connect 9 1 13 0;
#X connect 9 1 12 0;
#X connect 10 0 8 0;
#X connect 11 0 6 0;
#X connect 12 0 6 0;
#X connect 13 0 8 0;
#X connect 14 0 3 0;
#X connect 15 0 4 0;
#X connect 22 0 0 0;
#X connect 24 0 28 0;
#X connect 24 0 27 0;
#X connect 25 0 7 0;
#X connect 27 0 26 0;
#X connect 28 0 23 0;
