#N canvas 428 217 760 554 10;
#X obj 489 112 python-interface;
#X obj 137 88 adc~ 1 2 3 4;
#X obj 152 392 dac~;
#X obj 80 138 line~;
#X obj 249 143 line~;
#X obj 515 309 * 1000;
#X obj 494 334 pack;
#X obj 478 204 unpack;
#X obj 453 334 pack;
#X obj 451 249 sel 1 2;
#X obj 412 287 1;
#X obj 436 287 0;
#X obj 488 286 1;
#X obj 464 286 0;
#X obj 65 91 r chan1Vol;
#X obj 252 84 r chan2Vol;
#X obj 416 377 s chan1Vol;
#X obj 510 376 s chan2Vol;
#X obj 128 224 *~;
#X obj 164 223 *~;
#X obj 210 223 *~;
#X obj 246 222 *~;
#X obj 489 89 r toPython;
#X obj 566 205 s toPython;
#X obj 596 138 tgl 15 0 empty empty empty 17 7 0 10 -262144 -1 -1 0
1;
#X obj 489 145 route fade;
#X msg 566 179 status \$1;
#X obj 322 189 snapshot~;
#X obj 351 138 metro 100;
#X obj 351 102 tgl 15 0 empty empty empty 17 7 0 10 -262144 -1 -1 1
1;
#X obj 351 78 loadbang;
#X obj 391 193 snapshot~;
#X floatatom 321 225 5 0 0 0 - - -;
#X floatatom 379 228 5 0 0 0 - - -;
#X obj 26 174 print fade1;
#X obj 272 117 print fade2;
#X obj 495 179 print blah;
#X connect 0 0 25 0;
#X connect 0 1 24 0;
#X connect 1 0 18 0;
#X connect 1 1 19 0;
#X connect 1 2 20 0;
#X connect 1 3 21 0;
#X connect 3 0 19 1;
#X connect 3 0 18 1;
#X connect 3 0 27 0;
#X connect 4 0 20 1;
#X connect 4 0 21 1;
#X connect 4 0 31 0;
#X connect 5 0 6 1;
#X connect 5 0 8 1;
#X connect 6 0 17 0;
#X connect 7 0 9 0;
#X connect 7 1 5 0;
#X connect 8 0 16 0;
#X connect 9 0 11 0;
#X connect 9 0 10 0;
#X connect 9 1 13 0;
#X connect 9 1 12 0;
#X connect 10 0 8 0;
#X connect 11 0 6 0;
#X connect 12 0 6 0;
#X connect 13 0 8 0;
#X connect 14 0 3 0;
#X connect 14 0 34 0;
#X connect 15 0 4 0;
#X connect 15 0 35 0;
#X connect 18 0 2 0;
#X connect 19 0 2 1;
#X connect 20 0 2 0;
#X connect 21 0 2 1;
#X connect 22 0 0 0;
#X connect 24 0 26 0;
#X connect 25 0 7 0;
#X connect 25 0 36 0;
#X connect 26 0 23 0;
#X connect 27 0 32 0;
#X connect 28 0 27 0;
#X connect 28 0 31 0;
#X connect 29 0 28 0;
#X connect 30 0 29 0;
#X connect 31 0 33 0;
