#N canvas 589 304 450 300 10;
#X obj 175 37 r \$0-control;
#X obj 175 60 route dsp volume;
#X obj 175 83 tgl 15 0 empty empty empty 17 7 0 10 -262144 -1 -1 0
1;
#X obj 221 125 line~;
#X obj 47 171 *~;
#X obj 75 170 *~;
#X obj 47 215 s~ \$0-l;
#X obj 75 193 s~ \$0-r;
#X obj 265 157 loadbang;
#X obj 265 223 s masterCom;
#X obj 265 179 \$0;
#X msg 265 201 register \$1;
#X obj 36 23 inlet~;
#X obj 84 24 inlet~;
#X obj 175 107 outlet;
#X obj 119 168 print \$0-messages;
#X msg 221 84 \$1 10000;
#X obj 241 187 tgl 15 0 empty empty empty 17 7 0 10 -262144 -1 -1 1
1;
#X floatatom 177 274 5 0 0 0 - - -;
#X obj 172 242 snapshot~ 300;
#X obj 211 213 metro;
#X connect 0 0 1 0;
#X connect 0 0 15 0;
#X connect 1 0 2 0;
#X connect 1 1 16 0;
#X connect 2 0 14 0;
#X connect 3 0 4 1;
#X connect 3 0 5 1;
#X connect 3 0 19 0;
#X connect 4 0 6 0;
#X connect 5 0 7 0;
#X connect 8 0 10 0;
#X connect 8 0 17 0;
#X connect 10 0 11 0;
#X connect 11 0 9 0;
#X connect 12 0 4 0;
#X connect 13 0 5 0;
#X connect 16 0 3 0;
#X connect 17 0 20 0;
#X connect 19 0 18 0;
#X connect 20 0 19 0;
