#N canvas 555 149 450 300 10;
#X obj 35 100 python-interface;
#X obj 144 120 tgl 15 0 empty empty empty 17 7 0 10 -262144 -1 -1 0
1;
#X text 170 120 <- connected to Python;
#X obj 103 229 print from-python;
#X obj 144 191 print python-connected;
#X obj 35 192 route exit;
#X msg 35 217 \; pd quit \;;
#X obj 144 142 t f f;
#X obj 176 162 s connected;
#X obj 35 23 r connected;
#X obj 35 45 sel 1;
#X msg 35 68 hello this is my message to python \, this is another
message \;;
#X connect 0 0 5 0;
#X connect 0 1 1 0;
#X connect 1 0 7 0;
#X connect 5 0 6 0;
#X connect 5 1 3 0;
#X connect 7 0 4 0;
#X connect 7 1 8 0;
#X connect 9 0 10 0;
#X connect 10 0 11 0;
#X connect 11 0 0 0;
