#N canvas 1193 227 450 300 10;
#X obj 92 117 osc~;
#X msg 90 78 440;
#X obj 91 51 loadbang;
#X obj 243 98 python-interface;
#X obj 92 170 dac~;
#X connect 0 0 4 0;
#X connect 0 0 4 1;
#X connect 1 0 0 0;
#X connect 2 0 1 0;
