#N canvas 1193 227 450 300 10;
#X obj 92 140 osc~;
#X obj 92 34 loadbang;
#X obj 243 98 python-interface;
#X obj 92 170 dac~;
#X obj 336 135 tgl 15 0 empty empty empty 17 7 0 10 -262144 -1 -1 0
1;
#X msg 283 162 status \$1;
#X obj 283 186 s toPython;
#X obj 243 72 r toPython;
#X obj 92 62 random 300;
#X obj 92 91 + 300;
#X floatatom 92 114 5 0 0 0 - - -;
#X connect 0 0 3 0;
#X connect 0 0 3 1;
#X connect 1 0 8 0;
#X connect 2 1 4 0;
#X connect 4 0 5 0;
#X connect 5 0 6 0;
#X connect 7 0 2 0;
#X connect 8 0 9 0;
#X connect 9 0 10 0;
#X connect 10 0 0 0;
