#N canvas 0 180 932 524 10;
#X obj 308 93 python-interface;
#X obj 401 113 tgl 15 0 empty empty empty 17 7 0 10 -262144 -1 -1 0
1;
#X msg 401 131 connection status \$1;
#X obj 612 144 s~ 0-l;
#X obj 683 142 s~ 0-r;
#X text 567 115 Dummy Send~ objects so that PD doesn't raise errors
;
#X obj 401 151 s masterCom;
#X obj 308 73 r masterCom;
#X obj 321 326 volume-control;
#X obj 507 432 streaming;
#X obj 169 260 patch-control;
#X obj 214 353 patch-interface 1;
#X obj 419 359 patch-interface 2;
#X obj 308 171 route open close coms reg volume stream;
#X connect 0 0 13 0;
#X connect 0 1 1 0;
#X connect 1 0 2 0;
#X connect 2 0 6 0;
#X connect 7 0 0 0;
#X connect 8 0 11 2;
#X connect 8 1 12 2;
#X connect 11 0 9 0;
#X connect 11 1 9 1;
#X connect 12 0 9 0;
#X connect 12 1 9 1;
#X connect 13 0 10 0;
#X connect 13 1 10 1;
#X connect 13 2 11 0;
#X connect 13 2 12 0;
#X connect 13 3 11 1;
#X connect 13 3 12 1;
#X connect 13 4 8 0;
#X connect 13 5 9 2;
