#N canvas 104 71 932 524 10;
#X obj 308 93 python-interface;
#X obj 401 113 tgl 15 0 empty empty empty 17 7 0 10 -262144 -1 -1 0
1;
#X msg 57 309 \; pd open \$1 \$2;
#X obj 123 386 makefilename pd-%s;
#X msg 123 406 \; \$1 menuclose \;;
#X msg 401 131 connection status \$1;
#X obj 57 268 symbol;
#X obj 103 268 symbol;
#X obj 57 288 pack s s;
#X obj 249 436 s;
#X msg 264 390 \$1-control;
#X obj 264 412 symbol;
#X obj 327 439 s;
#X msg 342 393 \$1-control;
#X obj 342 415 symbol;
#X obj 123 364 symbol;
#X obj 612 144 s~ 0-l;
#X obj 683 142 s~ 0-r;
#X text 567 115 Dummy Send~ objects so that PD doesn't raise errors
;
#X obj 401 151 s masterCom;
#X obj 308 73 r masterCom;
#X obj 57 248 unpack s s;
#X obj 376 308 route 1 2;
#X obj 254 307 route 1 2;
#X obj 308 171 route open close coms register volume stream;
#X obj 402 362 patch-audio;
#X obj 465 303 volume-control;
#X obj 533 444 streaming;
#X obj 483 363 patch-audio;
#X connect 0 0 24 0;
#X connect 0 1 1 0;
#X connect 1 0 5 0;
#X connect 3 0 4 0;
#X connect 5 0 19 0;
#X connect 6 0 8 0;
#X connect 7 0 8 1;
#X connect 8 0 2 0;
#X connect 10 0 11 0;
#X connect 11 0 9 1;
#X connect 13 0 14 0;
#X connect 14 0 12 1;
#X connect 15 0 3 0;
#X connect 20 0 0 0;
#X connect 21 0 6 0;
#X connect 21 1 7 0;
#X connect 22 0 10 0;
#X connect 22 0 25 0;
#X connect 22 1 13 0;
#X connect 22 1 28 0;
#X connect 23 0 9 0;
#X connect 23 1 12 0;
#X connect 24 0 21 0;
#X connect 24 1 15 0;
#X connect 24 2 23 0;
#X connect 24 3 22 0;
#X connect 24 4 26 0;
#X connect 24 5 27 2;
#X connect 25 0 27 0;
#X connect 25 1 27 1;
#X connect 26 0 25 1;
#X connect 26 1 28 1;
#X connect 28 0 27 0;
#X connect 28 1 27 1;
