#N canvas 11 7 1060 761 10;
#X obj 41 43 python-interface;
#X obj 134 70 tgl 15 0 empty empty empty 17 7 0 10 -262144 -1 -1 0
1;
#X msg 16 315 \; pd open \$1 \$2;
#X obj 122 318 makefilename pd-%s;
#X msg 122 338 \; \$1 menuclose \;;
#X msg 185 268 \; pd dsp \$1;
#X msg 134 99 connection status \$1;
#X obj 16 274 symbol;
#X obj 62 274 symbol;
#X obj 16 294 pack s s;
#X obj 16 254 route patch path;
#X obj 249 372 s;
#X msg 267 312 \$1-control;
#X obj 267 334 symbol;
#X obj 327 375 s;
#X msg 348 313 \$1-control;
#X obj 348 335 symbol;
#X obj 122 296 symbol;
#X obj 485 128 s~ 0-l;
#X obj 556 126 s~ 0-r;
#N canvas 431 111 520 464 volume 0;
#X obj 136 145 tgl 15 0 empty empty empty 17 7 0 10 -262144 -1 -1 0
1;
#X floatatom 183 198 5 0 0 0 - - -;
#X floatatom 110 218 5 0 0 0 - - -;
#X obj 110 171 - 1;
#X obj 110 194 * -1;
#X obj 136 106 - 1;
#X obj 136 72 route chan fade;
#X obj 217 274 pack f f;
#X obj 129 277 pack f f;
#X obj 136 45 inlet;
#X obj 129 326 outlet~;
#X obj 212 331 outlet~;
#X obj 129 301 line~;
#X obj 237 224 * 1000;
#X obj 217 299 line~;
#X connect 0 0 1 0;
#X connect 0 0 3 0;
#X connect 1 0 7 0;
#X connect 2 0 8 0;
#X connect 3 0 4 0;
#X connect 4 0 2 0;
#X connect 5 0 0 0;
#X connect 6 0 5 0;
#X connect 6 1 13 0;
#X connect 7 0 14 0;
#X connect 8 0 12 0;
#X connect 9 0 6 0;
#X connect 12 0 10 0;
#X connect 13 0 7 1;
#X connect 13 0 8 1;
#X connect 14 0 11 0;
#X restore 517 289 pd volume;
#X text 440 99 Dummy Send~ objects so that PD doesn't raise errors
;
#X obj 134 125 s masterCom;
#X obj 41 20 r masterCom;
#N canvas 0 0 450 300 channelReg 0;
#X obj 85 115 list prepend set;
#X obj 85 136 list trim;
#X msg 218 95 \$1-r;
#X obj 218 115 list prepend set;
#X obj 218 136 list trim;
#X msg 85 95 \$1-l;
#X obj 85 157 r~ 0-l;
#X obj 218 157 r~ 0-r;
#X obj 244 221 *~;
#X obj 290 218 *~;
#X obj 153 39 inlet;
#X obj 318 166 inlet~;
#X obj 221 259 outlet~;
#X obj 283 265 outlet~;
#X connect 0 0 1 0;
#X connect 1 0 6 0;
#X connect 2 0 3 0;
#X connect 3 0 4 0;
#X connect 4 0 7 0;
#X connect 5 0 0 0;
#X connect 6 0 8 0;
#X connect 7 0 9 0;
#X connect 8 0 12 0;
#X connect 9 0 13 0;
#X connect 10 0 2 0;
#X connect 10 0 5 0;
#X connect 11 0 9 1;
#X connect 11 0 8 1;
#X restore 441 353 pd channelReg;
#N canvas 0 0 450 300 channelReg 0;
#X obj 85 115 list prepend set;
#X obj 85 136 list trim;
#X msg 218 95 \$1-r;
#X obj 218 115 list prepend set;
#X obj 218 136 list trim;
#X msg 85 95 \$1-l;
#X obj 85 157 r~ 0-l;
#X obj 218 157 r~ 0-r;
#X obj 244 221 *~;
#X obj 290 218 *~;
#X obj 153 39 inlet;
#X obj 318 166 inlet~;
#X obj 221 259 outlet~;
#X obj 283 265 outlet~;
#X connect 0 0 1 0;
#X connect 1 0 6 0;
#X connect 2 0 3 0;
#X connect 3 0 4 0;
#X connect 4 0 7 0;
#X connect 5 0 0 0;
#X connect 6 0 8 0;
#X connect 7 0 9 0;
#X connect 8 0 12 0;
#X connect 9 0 13 0;
#X connect 10 0 2 0;
#X connect 10 0 5 0;
#X connect 11 0 9 1;
#X connect 11 0 8 1;
#X restore 559 348 pd channelReg;
#X obj 41 184 route open close dsp patch1 patch2 reg1 reg2 volume stream
;
#X obj 449 490 s~ lout;
#X obj 564 492 s~ rout;
#X obj 402 211 s streamInfo;
#N canvas 1988 53 1007 745 audioOut 1;
#X obj 261 46 r streamInfo;
#X obj 95 134 sel stream dac;
#X obj 80 426 dac~;
#X obj 52 382 *~;
#X obj 96 381 *~;
#X msg 97 162 1;
#X msg 136 162 0;
#X floatatom 172 244 5 0 0 0 - - -;
#X floatatom 94 283 5 0 0 0 - - -;
#X obj 94 236 - 1;
#X obj 94 259 * -1;
#X obj 120 210 tgl 15 0 empty empty empty 17 7 0 10 -262144 -1 -1 0
1;
#X obj 206 374 *~;
#X obj 250 373 *~;
#X obj 202 337 r~ lout;
#X obj 271 335 r~ rout;
#X obj 38 316 r~ lout;
#X obj 96 317 r~ rout;
#X obj 186 398 r stream;
#X obj 424 420 s stream;
#X obj 177 450 print;
#X obj 374 323 list trim;
#X msg 255 210 passwd;
#X obj 255 154 symbol;
#X obj 454 172 sel 1 0;
#X msg 340 214 connect;
#X msg 522 238 disconnect;
#X obj 255 182 t b s;
#X obj 255 234 pack s s;
#X obj 340 182 symbol;
#X obj 207 422 oggcast~;
#X msg 618 222 vorbis \$1 \$2 \$3 \$4 \$5;
#X obj 340 149 unpack s s f;
#X obj 386 182 symbol;
#X obj 340 238 pack s s s f;
#X obj 226 95 route output password hostinfo settings connect;
#X connect 0 0 35 0;
#X connect 1 0 5 0;
#X connect 1 1 6 0;
#X connect 3 0 2 0;
#X connect 4 0 2 1;
#X connect 5 0 11 0;
#X connect 6 0 11 0;
#X connect 7 0 12 1;
#X connect 7 0 13 1;
#X connect 8 0 3 1;
#X connect 8 0 4 1;
#X connect 9 0 10 0;
#X connect 10 0 8 0;
#X connect 11 0 7 0;
#X connect 11 0 9 0;
#X connect 12 0 30 0;
#X connect 13 0 30 1;
#X connect 14 0 12 0;
#X connect 15 0 13 0;
#X connect 16 0 3 0;
#X connect 17 0 4 0;
#X connect 18 0 20 0;
#X connect 18 0 30 0;
#X connect 21 0 19 0;
#X connect 22 0 28 0;
#X connect 23 0 27 0;
#X connect 24 0 25 0;
#X connect 24 1 26 0;
#X connect 25 0 34 0;
#X connect 26 0 19 0;
#X connect 27 0 22 0;
#X connect 27 1 28 1;
#X connect 28 0 21 0;
#X connect 29 0 34 1;
#X connect 31 0 19 0;
#X connect 32 0 29 0;
#X connect 32 1 33 0;
#X connect 32 2 34 3;
#X connect 33 0 34 2;
#X connect 34 0 21 0;
#X connect 35 0 1 0;
#X connect 35 1 23 0;
#X connect 35 2 32 0;
#X connect 35 3 31 0;
#X connect 35 4 24 0;
#X restore 294 476 pd audioOut;
#X connect 0 0 26 0;
#X connect 0 1 1 0;
#X connect 1 0 6 0;
#X connect 3 0 4 0;
#X connect 6 0 22 0;
#X connect 7 0 9 0;
#X connect 8 0 9 1;
#X connect 9 0 2 0;
#X connect 10 0 7 0;
#X connect 10 1 8 0;
#X connect 12 0 13 0;
#X connect 13 0 11 1;
#X connect 15 0 16 0;
#X connect 16 0 14 1;
#X connect 17 0 3 0;
#X connect 20 0 24 1;
#X connect 20 1 25 1;
#X connect 23 0 0 0;
#X connect 24 0 27 0;
#X connect 24 1 28 0;
#X connect 25 0 27 0;
#X connect 25 1 28 0;
#X connect 26 0 10 0;
#X connect 26 1 17 0;
#X connect 26 2 5 0;
#X connect 26 3 11 0;
#X connect 26 4 14 0;
#X connect 26 5 12 0;
#X connect 26 5 24 0;
#X connect 26 6 15 0;
#X connect 26 6 25 0;
#X connect 26 7 20 0;
#X connect 26 8 29 0;
