#N canvas 752 71 1060 761 10;
#X obj 184 78 python-interface;
#X obj 649 566 dac~;
#X obj 184 55 r toPython;
#X obj 277 160 s toPython;
#X obj 277 105 tgl 15 0 empty empty empty 17 7 0 10 -262144 -1 -1 0
1;
#X msg 58 360 \; pd open \$1 \$2;
#X obj 164 363 makefilename pd-%s;
#X msg 164 383 \; \$1 menuclose \;;
#X msg 227 313 \; pd dsp \$1;
#X msg 277 134 connection status \$1;
#X obj 58 319 symbol;
#X obj 104 319 symbol;
#X obj 58 339 pack s s;
#X obj 58 299 route patch path;
#X obj 274 57 r masterCom;
#X obj 291 417 s;
#X msg 309 357 \$1-control;
#X obj 309 379 symbol;
#X obj 369 420 s;
#X msg 390 358 \$1-control;
#X obj 390 380 symbol;
#X obj 482 423 list prepend set;
#X obj 482 444 list trim;
#X msg 615 403 \$1-r;
#X obj 615 423 list prepend set;
#X obj 615 444 list trim;
#X obj 728 423 list prepend set;
#X obj 728 444 list trim;
#X msg 834 403 \$1-r;
#X obj 834 423 list prepend set;
#X obj 834 444 list trim;
#X obj 184 219 route open close dsp patch1 patch2 reg1 reg2;
#X msg 728 403 \$1-l;
#X msg 482 403 \$1-l;
#X floatatom 504 254 5 0 0 0 - - -;
#X floatatom 563 253 5 0 0 0 - - -;
#X obj 140 416 print close;
#X obj 164 341 symbol;
#X obj 482 465 r~ 0-l;
#X obj 615 465 r~ 0-r;
#X obj 728 465 r~ 0-l;
#X obj 834 465 r~ 0-r;
#X obj 594 139 s~ 0-l;
#X obj 665 137 s~ 0-r;
#X connect 0 0 31 0;
#X connect 0 1 4 0;
#X connect 2 0 0 0;
#X connect 4 0 9 0;
#X connect 6 0 7 0;
#X connect 6 0 36 0;
#X connect 9 0 3 0;
#X connect 10 0 12 0;
#X connect 11 0 12 1;
#X connect 12 0 5 0;
#X connect 13 0 10 0;
#X connect 13 1 11 0;
#X connect 14 0 0 0;
#X connect 16 0 17 0;
#X connect 17 0 15 1;
#X connect 19 0 20 0;
#X connect 20 0 18 1;
#X connect 21 0 22 0;
#X connect 22 0 38 0;
#X connect 23 0 24 0;
#X connect 24 0 25 0;
#X connect 25 0 39 0;
#X connect 26 0 27 0;
#X connect 27 0 40 0;
#X connect 28 0 29 0;
#X connect 29 0 30 0;
#X connect 30 0 41 0;
#X connect 31 0 13 0;
#X connect 31 1 37 0;
#X connect 31 2 8 0;
#X connect 31 3 15 0;
#X connect 31 4 18 0;
#X connect 31 5 16 0;
#X connect 31 5 33 0;
#X connect 31 5 23 0;
#X connect 31 5 34 0;
#X connect 31 6 19 0;
#X connect 31 6 32 0;
#X connect 31 6 28 0;
#X connect 31 6 35 0;
#X connect 32 0 26 0;
#X connect 33 0 21 0;
#X connect 37 0 6 0;
#X connect 38 0 1 0;
#X connect 39 0 1 1;
#X connect 40 0 1 0;
#X connect 41 0 1 1;
