#N canvas 249 60 932 524 10;
#X obj 308 93 python-interface;
#X obj 401 113 tgl 15 0 empty empty empty 17 7 0 10 -262144 -1 -1 0
1;
#X msg 401 131 connection status \$1;
#X obj 612 144 s~ 0-l;
#X obj 683 142 s~ 0-r;
#X text 567 115 Dummy Send~ objects so that PD doesn't raise errors
;
#X obj 401 151 s masterCom;
#X obj 308 73 r masterCom;
#X obj 411 278 route 1 2;
#X obj 312 262 route 1 2;
#X obj 308 171 route open close coms register volume stream;
#X obj 495 282 volume-control;
#X obj 533 444 streaming;
#X obj 217 260 patch-control;
#X obj 402 362 patch-interface;
#X obj 265 438 s;
#X msg 280 392 \$1-control;
#X obj 280 414 symbol;
#X obj 350 460 s;
#X msg 365 414 \$1-control;
#X obj 365 436 symbol;
#X obj 512 366 patch-interface;
#X connect 0 0 10 0;
#X connect 0 1 1 0;
#X connect 1 0 2 0;
#X connect 2 0 6 0;
#X connect 7 0 0 0;
#X connect 8 0 14 0;
#X connect 8 0 16 0;
#X connect 8 1 21 0;
#X connect 8 1 19 0;
#X connect 9 0 15 0;
#X connect 9 1 18 0;
#X connect 10 0 13 0;
#X connect 10 1 13 1;
#X connect 10 2 9 0;
#X connect 10 3 8 0;
#X connect 10 4 11 0;
#X connect 10 5 12 2;
#X connect 11 0 14 1;
#X connect 11 1 21 1;
#X connect 14 0 12 0;
#X connect 14 1 12 1;
#X connect 16 0 17 0;
#X connect 17 0 15 1;
#X connect 19 0 20 0;
#X connect 20 0 18 1;
#X connect 21 0 12 0;
#X connect 21 1 12 1;
