#N canvas 752 71 1060 761 10;
#X obj 184 78 python-interface;
#X obj 564 484 dac~;
#X obj 277 105 tgl 15 0 empty empty empty 17 7 0 10 -262144 -1 -1 0
1;
#X msg 58 360 \; pd open \$1 \$2;
#X obj 164 363 makefilename pd-%s;
#X msg 164 383 \; \$1 menuclose \;;
#X msg 227 313 \; pd dsp \$1;
#X msg 277 134 connection status \$1;
#X obj 58 319 symbol;
#X obj 104 319 symbol;
#X obj 58 339 pack s s;
#X obj 58 299 route patch path;
#X obj 291 417 s;
#X msg 309 357 \$1-control;
#X obj 309 379 symbol;
#X obj 369 420 s;
#X msg 390 358 \$1-control;
#X obj 390 380 symbol;
#X obj 164 341 symbol;
#X obj 628 163 s~ 0-l;
#X obj 699 161 s~ 0-r;
#X obj 184 219 route open close dsp patch1 patch2 reg1 reg2 volume
;
#N canvas 0 0 520 464 volume 1;
#X obj 136 145 tgl 15 0 empty empty empty 17 7 0 10 -262144 -1 -1 0
1;
#X floatatom 183 198 5 0 0 0 - - -;
#X floatatom 110 218 5 0 0 0 - - -;
#X obj 110 171 - 1;
#X obj 110 194 * -1;
#X obj 136 106 - 1;
#X obj 136 72 route chan fade;
#X obj 217 274 pack f f;
#X obj 129 277 pack f f;
#X obj 136 45 inlet;
#X obj 129 326 outlet~;
#X obj 212 331 outlet~;
#X obj 129 301 line~;
#X obj 237 224 * 1000;
#X obj 217 299 line~;
#X connect 0 0 1 0;
#X connect 0 0 3 0;
#X connect 1 0 7 0;
#X connect 2 0 8 0;
#X connect 3 0 4 0;
#X connect 4 0 2 0;
#X connect 5 0 0 0;
#X connect 6 0 5 0;
#X connect 6 1 13 0;
#X connect 7 0 14 0;
#X connect 8 0 12 0;
#X connect 9 0 6 0;
#X connect 12 0 10 0;
#X connect 13 0 7 1;
#X connect 13 0 8 1;
#X connect 14 0 11 0;
#X restore 559 334 pd volume;
#X text 583 134 Dummy Send~ objects so that PD doesn't raise errors
;
#X obj 277 160 s masterCom;
#X obj 184 55 r masterCom;
#N canvas 0 0 450 300 channelReg 0;
#X obj 85 115 list prepend set;
#X obj 85 136 list trim;
#X msg 218 95 \$1-r;
#X obj 218 115 list prepend set;
#X obj 218 136 list trim;
#X msg 85 95 \$1-l;
#X obj 85 157 r~ 0-l;
#X obj 218 157 r~ 0-r;
#X obj 244 221 *~;
#X obj 290 218 *~;
#X obj 153 39 inlet;
#X obj 318 166 inlet~;
#X obj 221 259 outlet~;
#X obj 283 265 outlet~;
#X connect 0 0 1 0;
#X connect 1 0 6 0;
#X connect 2 0 3 0;
#X connect 3 0 4 0;
#X connect 4 0 7 0;
#X connect 5 0 0 0;
#X connect 6 0 8 0;
#X connect 7 0 9 0;
#X connect 8 0 12 0;
#X connect 9 0 13 0;
#X connect 10 0 2 0;
#X connect 10 0 5 0;
#X connect 11 0 9 1;
#X connect 11 0 8 1;
#X restore 483 398 pd channelReg;
#N canvas 0 0 450 300 channelReg 0;
#X obj 85 115 list prepend set;
#X obj 85 136 list trim;
#X msg 218 95 \$1-r;
#X obj 218 115 list prepend set;
#X obj 218 136 list trim;
#X msg 85 95 \$1-l;
#X obj 85 157 r~ 0-l;
#X obj 218 157 r~ 0-r;
#X obj 244 221 *~;
#X obj 290 218 *~;
#X obj 153 39 inlet;
#X obj 318 166 inlet~;
#X obj 221 259 outlet~;
#X obj 283 265 outlet~;
#X connect 0 0 1 0;
#X connect 1 0 6 0;
#X connect 2 0 3 0;
#X connect 3 0 4 0;
#X connect 4 0 7 0;
#X connect 5 0 0 0;
#X connect 6 0 8 0;
#X connect 7 0 9 0;
#X connect 8 0 12 0;
#X connect 9 0 13 0;
#X connect 10 0 2 0;
#X connect 10 0 5 0;
#X connect 11 0 9 1;
#X connect 11 0 8 1;
#X restore 601 393 pd channelReg;
#X obj 768 517 snapshot~;
#X obj 813 457 metro 300;
#X obj 813 409 tgl 15 0 empty empty empty 17 7 0 10 -262144 -1 -1 1
1;
#X obj 822 372 loadbang;
#X obj 854 514 snapshot~;
#X floatatom 770 558 5 0 0 0 - - -;
#X floatatom 860 547 5 0 0 0 - - -;
#X obj 590 308 print;
#X connect 0 0 21 0;
#X connect 0 1 2 0;
#X connect 2 0 7 0;
#X connect 4 0 5 0;
#X connect 7 0 24 0;
#X connect 8 0 10 0;
#X connect 9 0 10 1;
#X connect 10 0 3 0;
#X connect 11 0 8 0;
#X connect 11 1 9 0;
#X connect 13 0 14 0;
#X connect 14 0 12 1;
#X connect 16 0 17 0;
#X connect 17 0 15 1;
#X connect 18 0 4 0;
#X connect 21 0 11 0;
#X connect 21 1 18 0;
#X connect 21 2 6 0;
#X connect 21 3 12 0;
#X connect 21 4 15 0;
#X connect 21 5 13 0;
#X connect 21 5 26 0;
#X connect 21 6 16 0;
#X connect 21 6 27 0;
#X connect 21 7 22 0;
#X connect 21 7 35 0;
#X connect 22 0 26 1;
#X connect 22 0 28 0;
#X connect 22 1 27 1;
#X connect 22 1 32 0;
#X connect 25 0 0 0;
#X connect 26 0 1 0;
#X connect 26 1 1 1;
#X connect 27 0 1 0;
#X connect 27 1 1 1;
#X connect 28 0 33 0;
#X connect 29 0 28 0;
#X connect 29 0 32 0;
#X connect 30 0 29 0;
#X connect 31 0 30 0;
#X connect 32 0 34 0;
