#N canvas 11 7 1060 722 10;
#X obj 210 98 python-interface;
#X obj 303 118 tgl 15 0 empty empty empty 17 7 0 10 -262144 -1 -1 0
1;
#X msg 61 282 \; pd open \$1 \$2;
#X obj 122 382 makefilename pd-%s;
#X msg 122 402 \; \$1 menuclose \;;
#X msg 303 136 connection status \$1;
#X obj 61 241 symbol;
#X obj 107 241 symbol;
#X obj 61 261 pack s s;
#X obj 267 395 s;
#X msg 282 349 \$1-control;
#X obj 282 371 symbol;
#X obj 345 398 s;
#X msg 360 352 \$1-control;
#X obj 360 374 symbol;
#X obj 122 360 symbol;
#X obj 612 144 s~ 0-l;
#X obj 683 142 s~ 0-r;
#N canvas 431 111 520 464 volume 0;
#X obj 136 145 tgl 15 0 empty empty empty 17 7 0 10 -262144 -1 -1 0
1;
#X floatatom 183 198 5 0 0 0 - - -;
#X floatatom 110 218 5 0 0 0 - - -;
#X obj 110 171 - 1;
#X obj 110 194 * -1;
#X obj 136 106 - 1;
#X obj 136 72 route chan fade;
#X obj 217 274 pack f f;
#X obj 129 277 pack f f;
#X obj 136 45 inlet;
#X obj 129 326 outlet~;
#X obj 212 331 outlet~;
#X obj 129 301 line~;
#X obj 237 224 * 1000;
#X obj 217 299 line~;
#X connect 0 0 1 0;
#X connect 0 0 3 0;
#X connect 1 0 7 0;
#X connect 2 0 8 0;
#X connect 3 0 4 0;
#X connect 4 0 2 0;
#X connect 5 0 0 0;
#X connect 6 0 5 0;
#X connect 6 1 13 0;
#X connect 7 0 14 0;
#X connect 8 0 12 0;
#X connect 9 0 6 0;
#X connect 12 0 10 0;
#X connect 13 0 7 1;
#X connect 13 0 8 1;
#X connect 14 0 11 0;
#X restore 573 337 pd volume;
#X text 567 115 Dummy Send~ objects so that PD doesn't raise errors
;
#X obj 303 156 s masterCom;
#X obj 210 78 r masterCom;
#N canvas 0 0 450 300 channelReg 0;
#X obj 85 115 list prepend set;
#X obj 85 136 list trim;
#X msg 218 95 \$1-r;
#X obj 218 115 list prepend set;
#X obj 218 136 list trim;
#X msg 85 95 \$1-l;
#X obj 85 157 r~ 0-l;
#X obj 218 157 r~ 0-r;
#X obj 244 221 *~;
#X obj 290 218 *~;
#X obj 153 39 inlet;
#X obj 318 166 inlet~;
#X obj 221 259 outlet~;
#X obj 283 265 outlet~;
#X connect 0 0 1 0;
#X connect 1 0 6 0;
#X connect 2 0 3 0;
#X connect 3 0 4 0;
#X connect 4 0 7 0;
#X connect 5 0 0 0;
#X connect 6 0 8 0;
#X connect 7 0 9 0;
#X connect 8 0 12 0;
#X connect 9 0 13 0;
#X connect 10 0 2 0;
#X connect 10 0 5 0;
#X connect 11 0 9 1;
#X connect 11 0 8 1;
#X restore 497 401 pd channelReg;
#N canvas 0 0 450 300 channelReg 0;
#X obj 85 115 list prepend set;
#X obj 85 136 list trim;
#X msg 218 95 \$1-r;
#X obj 218 115 list prepend set;
#X obj 218 136 list trim;
#X msg 85 95 \$1-l;
#X obj 85 157 r~ 0-l;
#X obj 218 157 r~ 0-r;
#X obj 244 221 *~;
#X obj 290 218 *~;
#X obj 153 39 inlet;
#X obj 318 166 inlet~;
#X obj 221 259 outlet~;
#X obj 283 265 outlet~;
#X connect 0 0 1 0;
#X connect 1 0 6 0;
#X connect 2 0 3 0;
#X connect 3 0 4 0;
#X connect 4 0 7 0;
#X connect 5 0 0 0;
#X connect 6 0 8 0;
#X connect 7 0 9 0;
#X connect 8 0 12 0;
#X connect 9 0 13 0;
#X connect 10 0 2 0;
#X connect 10 0 5 0;
#X connect 11 0 9 1;
#X connect 11 0 8 1;
#X restore 589 401 pd channelReg;
#X obj 563 270 s streamInfo;
#N canvas 359 23 1007 722 audioOut 1;
#X obj 129 36 r streamInfo;
#X obj 228 266 list trim;
#X msg 129 198 passwd;
#X obj 129 156 symbol;
#X obj 231 122 sel 1 0;
#X msg 188 197 connect;
#X msg 292 186 disconnect;
#X obj 129 177 t b s;
#X obj 129 219 pack s s;
#X obj 188 175 symbol;
#X obj 417 323 oggcast~;
#X msg 312 150 vorbis \$1 \$2 \$3 \$4 \$5;
#X obj 188 152 unpack s s f;
#X obj 234 175 symbol;
#X obj 188 219 pack s s s f;
#X obj 417 270 inlet~;
#X obj 461 270 inlet~;
#X msg 374 194 server \$1;
#X obj 129 86 route password hostinfo connect settings server meta
;
#X obj 514 117 route artist;
#X obj 514 163 t b s;
#X obj 514 142 symbol;
#X msg 514 184 ARTIST;
#X obj 514 206 pack s s;
#X connect 0 0 18 0;
#X connect 1 0 10 0;
#X connect 2 0 8 0;
#X connect 3 0 7 0;
#X connect 4 0 5 0;
#X connect 4 1 6 0;
#X connect 5 0 14 0;
#X connect 6 0 10 0;
#X connect 7 0 2 0;
#X connect 7 1 8 1;
#X connect 8 0 1 0;
#X connect 9 0 14 1;
#X connect 11 0 10 0;
#X connect 12 0 9 0;
#X connect 12 1 13 0;
#X connect 12 2 14 3;
#X connect 13 0 14 2;
#X connect 14 0 1 0;
#X connect 15 0 10 0;
#X connect 16 0 10 1;
#X connect 17 0 10 0;
#X connect 18 0 3 0;
#X connect 18 1 12 0;
#X connect 18 2 4 0;
#X connect 18 3 11 0;
#X connect 18 4 17 0;
#X connect 18 5 19 0;
#X connect 19 0 21 0;
#X connect 20 0 22 0;
#X connect 20 1 23 1;
#X connect 21 0 20 0;
#X connect 22 0 23 0;
#X connect 23 0 10 0;
#X restore 549 470 pd audioOut;
#X obj 61 221 unpack s s;
#X obj 381 289 route 1 2;
#X obj 267 297 route 1 2;
#X obj 210 176 route open close coms register volume stream;
#X connect 0 0 29 0;
#X connect 0 1 1 0;
#X connect 1 0 5 0;
#X connect 3 0 4 0;
#X connect 5 0 20 0;
#X connect 6 0 8 0;
#X connect 7 0 8 1;
#X connect 8 0 2 0;
#X connect 10 0 11 0;
#X connect 11 0 9 1;
#X connect 13 0 14 0;
#X connect 14 0 12 1;
#X connect 15 0 3 0;
#X connect 18 0 22 1;
#X connect 18 1 23 1;
#X connect 21 0 0 0;
#X connect 22 0 25 0;
#X connect 22 1 25 1;
#X connect 23 0 25 0;
#X connect 23 1 25 1;
#X connect 26 0 6 0;
#X connect 26 1 7 0;
#X connect 27 0 10 0;
#X connect 27 0 22 0;
#X connect 27 1 13 0;
#X connect 27 1 23 0;
#X connect 28 0 9 0;
#X connect 28 1 12 0;
#X connect 29 0 26 0;
#X connect 29 1 15 0;
#X connect 29 2 28 0;
#X connect 29 3 27 0;
#X connect 29 4 18 0;
#X connect 29 5 24 0;
