#N canvas -1271 376 450 300 10;
#X obj 175 37 r \$0-control;
#X obj 175 127 tgl 15 0 empty empty empty 17 7 0 10 -262144 -1 -1 0
1;
#X obj 36 64 s~ \$0-l;
#X obj 85 53 s~ \$0-r;
#X obj 303 38 loadbang;
#X obj 303 104 s masterCom;
#X obj 303 60 \$0;
#X msg 303 82 register \$1;
#X obj 36 23 inlet~;
#X obj 84 24 inlet~;
#X obj 175 151 outlet;
#X obj 203 209 s masterCom;
#X obj 175 84 route dsp debug;
#X obj 175 59 t a a;
#X obj 202 126 spigot;
#X obj 218 106 tgl 15 0 empty empty empty 17 7 0 10 -262144 -1 -1 0
1;
#X obj 203 181 list prepend debug patch-\$0;
#X connect 0 0 13 0;
#X connect 1 0 10 0;
#X connect 4 0 6 0;
#X connect 6 0 7 0;
#X connect 7 0 5 0;
#X connect 8 0 2 0;
#X connect 9 0 3 0;
#X connect 12 0 1 0;
#X connect 12 1 15 0;
#X connect 13 0 12 0;
#X connect 13 1 14 0;
#X connect 14 0 16 0;
#X connect 15 0 14 1;
#X connect 16 0 11 0;
