#N canvas 515 54 526 501 10;
#X obj 261 78 spigot 0;
#X obj 144 172 list prepend send;
#X obj 144 198 list trim;
#X obj 385 360 t f f;
#X obj 270 364 outlet;
#X obj 261 55 inlet;
#X obj 385 392 outlet;
#X obj 219 210 r startup;
#X msg 219 261 connect localhost \$1;
#X obj 219 235 route port;
#X obj 219 303 netclient;
#X obj 219 332 route dsp;
#X msg 219 395 \; pd dsp \$1;
#X msg 125 367 Master DSP \$1;
#X obj 125 389 s masterCom;
#X connect 0 0 1 0;
#X connect 1 0 2 0;
#X connect 2 0 10 0;
#X connect 3 0 6 0;
#X connect 3 1 0 1;
#X connect 5 0 0 0;
#X connect 7 0 9 0;
#X connect 8 0 10 0;
#X connect 9 0 8 0;
#X connect 10 0 11 0;
#X connect 10 1 3 0;
#X connect 11 0 12 0;
#X connect 11 0 13 0;
#X connect 11 1 4 0;
#X connect 13 0 14 0;
