#N canvas 0 0 319 399 10;
#X obj 92 138 tgl 15 0 empty empty empty 17 7 0 10 -262144 -1 -1 0
1;
#X floatatom 139 191 5 0 0 0 - - -;
#X floatatom 66 211 5 0 0 0 - - -;
#X obj 66 164 - 1;
#X obj 66 187 * -1;
#X obj 92 99 - 1;
#X obj 92 65 route chan fade;
#X obj 173 267 pack f f;
#X obj 85 270 pack f f;
#X obj 92 38 inlet;
#X obj 85 319 outlet~;
#X obj 168 324 outlet~;
#X obj 85 294 line~;
#X obj 193 217 * 1000;
#X obj 173 292 line~;
#X connect 0 0 1 0;
#X connect 0 0 3 0;
#X connect 1 0 7 0;
#X connect 2 0 8 0;
#X connect 3 0 4 0;
#X connect 4 0 2 0;
#X connect 5 0 0 0;
#X connect 6 0 5 0;
#X connect 6 1 13 0;
#X connect 7 0 14 0;
#X connect 8 0 12 0;
#X connect 9 0 6 0;
#X connect 12 0 10 0;
#X connect 13 0 7 1;
#X connect 13 0 8 1;
#X connect 14 0 11 0;
