#N canvas 463 258 589 454 10;
#X obj 81 207 osc~;
#X obj 81 101 loadbang;
#X obj 81 129 random 300;
#X obj 81 158 + 300;
#X floatatom 81 181 5 0 0 0 - - -;
#X obj 69 280 patchComs;
#X obj 69 305 switch~;
#X connect 0 0 5 0;
#X connect 0 0 5 1;
#X connect 1 0 2 0;
#X connect 2 0 3 0;
#X connect 3 0 4 0;
#X connect 4 0 0 0;
#X connect 5 0 6 0;
